<?xml version="1.0" standalone="no"?>
<!DOCTYPE svg PUBLIC "-//W3C//DTD SVG 20010904//EN"
 "http://www.w3.org/TR/2001/REC-SVG-20010904/DTD/svg10.dtd">
<svg version="1.0" xmlns="http://www.w3.org/2000/svg"
 width="1693.000000pt" height="1693.000000pt" viewBox="0 0 1693.000000 1693.000000"
 preserveAspectRatio="xMidYMid meet">

<g transform="translate(0.000000,1693.000000) scale(0.100000,-0.100000)"
fill="currentcolor" stroke="none">
<path d="M8305 16470 c-601 -61 -1027 -372 -1230 -898 -45 -116 -83 -275 -90
-372 -7 -93 -85 -2001 -85 -2076 0 -52 -2 -55 -76 -141 -501 -576 -1287 -1309
-1985 -1850 -165 -127 -241 -198 -310 -288 -199 -261 -290 -595 -290 -1065 0
-612 160 -1321 501 -2220 115 -304 306 -743 432 -994 27 -54 47 -100 45 -103
-8 -7 -136 108 -247 223 -325 336 -571 758 -745 1277 -151 450 -220 832 -251
1390 -7 124 -2 125 -82 -18 -114 -206 -215 -469 -280 -731 -240 -953 -39
-1917 581 -2791 245 -346 541 -665 932 -1007 1219 -1064 2034 -2214 2440
-3441 130 -393 208 -776 237 -1167 3 -35 33 9 448 665 432 681 446 705 482
815 104 311 197 745 245 1142 22 183 25 700 5 860 -36 288 -98 490 -232 770
-146 302 -209 483 -270 779 -71 338 -100 740 -81 1115 15 313 51 629 51 455 0
-255 76 -634 204 -1014 58 -172 176 -479 190 -492 10 -11 61 31 162 131 334
334 553 817 659 1449 39 238 57 450 59 734 l3 263 139 4 c197 6 366 49 664
168 137 54 550 255 550 267 0 4 -26 16 -57 25 -151 48 -355 154 -496 259 -177
131 -305 264 -421 437 -58 86 -136 227 -136 245 0 4 42 -31 93 -77 229 -210
471 -370 826 -548 591 -295 1261 -493 1916 -566 195 -21 587 -29 765 -15 582
46 908 166 1170 430 184 185 296 397 369 693 45 184 61 311 68 538 9 308 -28
681 -91 915 -14 50 -198 679 -410 1399 -213 720 -385 1310 -384 1311 3 3 317
113 334 117 7 2 93 -68 192 -154 99 -87 184 -158 188 -158 19 0 1010 345 1016
353 30 45 42 373 19 496 -52 272 -192 535 -402 755 -56 58 -106 106 -112 106
-9 0 -1098 -398 -1104 -404 -1 -1 -14 -121 -28 -266 -14 -146 -28 -274 -30
-286 -4 -17 -30 -27 -177 -67 -95 -26 -205 -54 -244 -63 l-71 -17 -96 27
c-144 41 -239 55 -367 55 -231 1 -394 -62 -556 -213 -68 -62 -183 -217 -199
-265 -5 -16 -59 -37 -271 -108 l-264 -88 -223 222 -222 223 -405 -155 c-223
-86 -446 -171 -496 -190 l-91 -35 -21 -73 c-33 -112 -44 -192 -43 -317 0 -286
106 -545 336 -819 76 -90 237 -241 257 -241 6 0 264 91 574 202 l564 202 0
246 0 245 63 18 c98 27 397 97 415 97 9 0 27 -15 40 -34 70 -102 225 -146 403
-112 153 29 248 16 369 -51 116 -64 267 -200 346 -314 l25 -36 -32 -34 c-145
-155 -304 -525 -439 -1017 -70 -258 -90 -373 -97 -547 -12 -328 64 -660 232
-1012 101 -211 241 -431 388 -612 58 -71 60 -74 31 -67 -61 14 -232 108 -310
169 -144 115 -250 258 -340 459 -66 148 -107 222 -179 323 -273 380 -680 600
-1213 656 -210 22 -586 4 -784 -37 -25 -5 -16 -20 291 -432 174 -235 334 -452
356 -482 30 -42 0 -17 -132 111 -606 588 -1222 991 -1826 1195 -481 162 -1001
111 -1512 -151 -204 -104 -371 -216 -561 -376 -53 -44 -98 -78 -101 -75 -8 7
42 94 97 168 119 158 372 357 677 531 106 61 415 214 520 258 46 19 83 36 82
39 0 3 -48 41 -106 85 -128 97 -346 305 -448 426 -180 215 -301 437 -354 651
-24 96 -36 240 -24 282 8 27 11 24 37 -56 36 -112 106 -247 186 -361 119 -168
361 -393 564 -522 58 -37 60 -35 25 16 -10 14 -34 57 -53 96 -107 213 -80 398
81 561 100 102 175 117 293 61 99 -47 198 -69 309 -69 71 0 106 5 136 19 48
21 99 77 114 123 5 18 15 163 21 323 9 260 12 294 31 333 27 54 77 89 153 104
66 13 115 48 136 98 9 21 11 68 8 152 -6 153 -32 236 -147 466 -68 135 -78
162 -66 172 8 7 25 37 37 68 21 53 23 72 23 262 0 225 -13 334 -69 585 l-31
141 155 0 c171 1 251 14 398 66 245 86 515 274 702 488 l48 55 -267 0 c-405 1
-655 41 -900 144 -434 184 -900 316 -1286 366 -149 19 -440 27 -560 15z"/>
</g>
</svg>
